<svg xmlns="http://www.w3.org/2000/svg" width="1024" height="1024" viewBox="0 0 1024 1024"><title>bnk sound</title><rect x="0" y="0" width="1024" height="1024" rx="224" fill="#141519"/><rect x="251" y="230" width="28" height="28" rx="6" fill="#23272f"/><rect x="251" y="270" width="28" height="28" rx="6" fill="#23272f"/><rect x="251" y="310" width="28" height="28" rx="6" fill="#23272f"/><rect x="251" y="350" width="28" height="28" rx="6" fill="#23272f"/><rect x="251" y="390" width="28" height="28" rx="6" fill="#23272f"/><rect x="251" y="430" width="28" height="28" rx="6" fill="#23272f"/><rect x="251" y="470" width="28" height="28" rx="6" fill="#23272f"/><rect x="251" y="510" width="28" height="28" rx="6" fill="#23272f"/><rect x="251" y="550" width="28" height="28" rx="6" fill="#6d8db0"/><rect x="251" y="590" width="28" height="28" rx="6" fill="#4d6585"/><rect x="251" y="630" width="28" height="28" rx="6" fill="#4d6585"/><rect x="251" y="670" width="28" height="28" rx="6" fill="#4d6585"/><rect x="251" y="710" width="28" height="28" rx="6" fill="#4d6585"/><rect x="251" y="750" width="28" height="28" rx="6" fill="#4d6585"/><rect x="463" y="230" width="28" height="28" rx="6" fill="#23272f"/><rect x="463" y="270" width="28" height="28" rx="6" fill="#23272f"/><rect x="463" y="310" width="28" height="28" rx="6" fill="#23272f"/><rect x="463" y="350" width="28" height="28" rx="6" fill="#23272f"/><rect x="463" y="390" width="28" height="28" rx="6" fill="#23272f"/><rect x="463" y="430" width="28" height="28" rx="6" fill="#6d8db0"/><rect x="463" y="470" width="28" height="28" rx="6" fill="#4d6585"/><rect x="463" y="510" width="28" height="28" rx="6" fill="#4d6585"/><rect x="463" y="550" width="28" height="28" rx="6" fill="#4d6585"/><rect x="463" y="590" width="28" height="28" rx="6" fill="#4d6585"/><rect x="463" y="630" width="28" height="28" rx="6" fill="#4d6585"/><rect x="463" y="670" width="28" height="28" rx="6" fill="#4d6585"/><rect x="463" y="710" width="28" height="28" rx="6" fill="#4d6585"/><rect x="463" y="750" width="28" height="28" rx="6" fill="#4d6585"/><rect x="675" y="230" width="28" height="28" rx="6" fill="#23272f"/><rect x="675" y="270" width="28" height="28" rx="6" fill="#23272f"/><rect x="675" y="310" width="28" height="28" rx="6" fill="#23272f"/><rect x="675" y="350" width="28" height="28" rx="6" fill="#6d8db0"/><rect x="675" y="390" width="28" height="28" rx="6" fill="#4d6585"/><rect x="675" y="430" width="28" height="28" rx="6" fill="#4d6585"/><rect x="675" y="470" width="28" height="28" rx="6" fill="#4d6585"/><rect x="675" y="510" width="28" height="28" rx="6" fill="#4d6585"/><rect x="675" y="550" width="28" height="28" rx="6" fill="#4d6585"/><rect x="675" y="590" width="28" height="28" rx="6" fill="#4d6585"/><rect x="675" y="630" width="28" height="28" rx="6" fill="#4d6585"/><rect x="675" y="670" width="28" height="28" rx="6" fill="#4d6585"/><rect x="675" y="710" width="28" height="28" rx="6" fill="#4d6585"/><rect x="675" y="750" width="28" height="28" rx="6" fill="#4d6585"/><rect x="308" y="230" width="34" height="564" rx="10" fill="#2c2e36"/><rect x="308" y="600" width="34" height="194" rx="10" fill="#4cb050"/><circle cx="325" cy="600" r="30" fill="#34373d"/><rect x="520" y="230" width="34" height="564" rx="10" fill="#2c2e36"/><rect x="520" y="380" width="34" height="414" rx="10" fill="#4cb050"/><circle cx="537" cy="380" r="30" fill="#34373d"/><rect x="732" y="230" width="34" height="564" rx="10" fill="#2c2e36"/><rect x="732" y="520" width="34" height="274" rx="10" fill="#4cb050"/><circle cx="749" cy="520" r="30" fill="#34373d"/></svg>